<svg xmlns="http://www.w3.org/2000/svg" width="100" height="50" viewBox="0 0 100 50">
  <g fill="#E21C2A" fill-rule="evenodd">
    <path d="M49.8659517,5.34759358 C75.6032172,5.34759358 96.5147453,14.171123 96.5147453,25.1336898 C96.5147453,35.828877 75.6032172,44.6524064 49.8659517,44.6524064 C24.1286863,44.6524064 3.21715818,35.828877 3.21715818,25.1336898 C3.21715818,14.171123 24.1286863,5.34759358 49.8659517,5.34759358 Z M49.8659517,0 C77.4798928,0 100,11.2299465 100,25.1336898 C100,38.7700535 77.4798928,50 49.8659517,50 C22.5201072,50 0,38.7700535 0,25.1336898 C0,11.2299465 22.5201072,0 49.8659517,0 Z"/>
    <path d="M16.8539326,13.4453782 L25.4456026,13.4453782 L25.4456026,21.9453299 L31.3523758,13.4453782 L39.4070665,13.4453782 L31.8893552,23.8046943 L41.2864943,36.5546218 L33.2318036,36.5546218 L25.4456026,26.9921762 L25.4456026,36.5546218 L18.7333604,36.5546218 L18.7333604,14.5078721 L16.8539326,14.5078721 L16.8539326,13.4453782 Z M44.2398809,13.4453782 L53.1000406,13.4453782 L53.1000406,36.5546218 L46.1193087,36.5546218 L46.1193087,14.5078721 L44.2398809,14.5078721 L44.2398809,13.4453782 Z M64.3766076,13.4453782 L74.3107261,13.4453782 L83.7078652,36.5546218 L76.1901539,36.5546218 L70.8203601,20.0859654 L65.1820766,36.5546218 L57.6643653,36.5546218 L66.5245251,14.5078721 L64.3766076,14.5078721 L64.3766076,13.4453782 Z"/>
  </g>
</svg>
